<?xml version="1.0" encoding="UTF-8"?>
<svg version="1.1" xmlns="http://www.w3.org/2000/svg" width="48" height="48">
<path d="M0 0 C9.24 0 18.48 0 28 0 C30.25 9 30.25 9 30.1953125 12.71875 C30.18886719 13.50507813 30.18242188 14.29140625 30.17578125 15.1015625 C30.15902344 15.89304687 30.14226563 16.68453125 30.125 17.5 C30.11597656 18.32242187 30.10695312 19.14484375 30.09765625 19.9921875 C30.07436865 21.99492083 30.03850959 23.99750154 30 26 C30.66 26 31.32 26 32 26 C32 29.96 32 33.92 32 38 C20.12 38 8.24 38 -4 38 C-4 34.04 -4 30.08 -4 26 C-3.34 26 -2.68 26 -2 26 C-2.02320313 24.7934375 -2.04640625 23.586875 -2.0703125 22.34375 C-2.08908665 20.72917291 -2.10728507 19.11458906 -2.125 17.5 C-2.14175781 16.70851563 -2.15851562 15.91703125 -2.17578125 15.1015625 C-2.18544922 13.92207031 -2.18544922 13.92207031 -2.1953125 12.71875 C-2.20578613 12.00654297 -2.21625977 11.29433594 -2.22705078 10.56054688 C-1.90928793 6.97700198 -0.87254756 3.49019026 0 0 Z " fill="#28ABE4" transform="translate(10,5)"/>
<path d="M0 0 C11.45525292 -0.49805447 11.45525292 -0.49805447 14.1875 2 C15.0846875 2.99 15.0846875 2.99 16 4 C19.167832 4.33448259 19.167832 4.33448259 22 4 C22.33 2.68 22.66 1.36 23 0 C27.29 0 31.58 0 36 0 C36 3.96 36 7.92 36 12 C24.12 12 12.24 12 0 12 C0 8.04 0 4.08 0 0 Z " fill="#FECB41" transform="translate(6,31)"/>
<path d="M0 0 C9.24 0 18.48 0 28 0 C28.33 2.64 28.66 5.28 29 8 C19.1 8 9.2 8 -1 8 C-0.67 5.36 -0.34 2.72 0 0 Z " fill="#1393DD" transform="translate(10,5)"/>
<path d="M0 0 C1.91541138 -0.10841951 3.83259773 -0.18578079 5.75 -0.25 C6.81734375 -0.29640625 7.8846875 -0.3428125 8.984375 -0.390625 C12.68551566 0.08879737 13.55575626 1.30290346 16 4 C19.167832 4.33448259 19.167832 4.33448259 22 4 C21.67 4.66 21.34 5.32 21 6 C14.07 6 7.14 6 0 6 C0 4.02 0 2.04 0 0 Z M23 0 C27.29 0 31.58 0 36 0 C36 0.99 36 1.98 36 3 C31.38 3.33 26.76 3.66 22 4 C22.33 2.68 22.66 1.36 23 0 Z " fill="#FAD15A" transform="translate(6,31)"/>
<path d="M0 0 C9.24 0 18.48 0 28 0 C28 1.32 28 2.64 28 4 C18.76 4 9.52 4 0 4 C0 2.68 0 1.36 0 0 Z " fill="#0F5CA1" transform="translate(10,5)"/>
<path d="M0 0 C11.88 0 23.76 0 36 0 C36 0.99 36 1.98 36 3 C24.12 3 12.24 3 0 3 C0 2.01 0 1.02 0 0 Z " fill="#FDC731" transform="translate(6,40)"/>
<path d="M0 0 C3.0390625 -0.29296875 3.0390625 -0.29296875 6.625 -0.1875 C7.81351563 -0.16042969 9.00203125 -0.13335937 10.2265625 -0.10546875 C11.14179687 -0.07066406 12.05703125 -0.03585938 13 0 C13 0.99 13 1.98 13 3 C8.05 3 3.1 3 -2 3 C-1.34 2.01 -0.68 1.02 0 0 Z " fill="#FFD051" transform="translate(29,34)"/>
<path d="M0 0 C1.95766281 -0.08082094 3.91626728 -0.13910778 5.875 -0.1875 C7.51082031 -0.23970703 7.51082031 -0.23970703 9.1796875 -0.29296875 C10.11039063 -0.19628906 11.04109375 -0.09960938 12 0 C12.66 0.99 13.32 1.98 14 3 C9.38 3 4.76 3 0 3 C0 2.01 0 1.02 0 0 Z " fill="#FDD562" transform="translate(6,31)"/>
</svg>
