<?xml version="1.0" encoding="UTF-8"?>
<svg version="1.1" xmlns="http://www.w3.org/2000/svg" width="48" height="48">
<path d="M0 0 C5.61 0 11.22 0 17 0 C18.32 1.32 19.64 2.64 21 4 C23.79057324 4.63735866 23.79057324 4.63735866 26.859375 4.609375 C27.86452148 4.63999023 28.86966797 4.67060547 29.90527344 4.70214844 C31.1740332 4.71793945 32.44279297 4.73373047 33.75 4.75 C39.81375 4.87375 39.81375 4.87375 46 5 C46 15.23 46 25.46 46 36 C30.82 36 15.64 36 0 36 C0 24.12 0 12.24 0 0 Z " fill="#1FA0DF" transform="translate(1,5)"/>
<path d="M0 0 C1.9375 1.4375 1.9375 1.4375 3 3 C3 3.66 3 4.32 3 5 C3.639375 5.226875 4.27875 5.45375 4.9375 5.6875 C7 7 7 7 7.9375 9.375 C8 12 8 12 7.09375 14.1328125 C3.68614889 17.17168065 -0.0351169 16.57890754 -4.4375 16.5 C-5.29666016 16.51546875 -6.15582031 16.5309375 -7.04101562 16.546875 C-13.28140021 16.50814492 -13.28140021 16.50814492 -16.57421875 14.1796875 C-18 12 -18 12 -18.375 8.625 C-16.54912904 3.8113402 -14.088882 2.41946459 -9.64453125 0.03515625 C-6.00622967 -1.38899429 -3.67285389 -1.27425543 0 0 Z " fill="#F2FDFE" transform="translate(29,18)"/>
<path d="M0 0 C2.75105422 -0.10812003 5.49785087 -0.18734945 8.25 -0.25 C9.02730469 -0.28351562 9.80460938 -0.31703125 10.60546875 -0.3515625 C11.35957031 -0.36445312 12.11367187 -0.37734375 12.890625 -0.390625 C13.58188477 -0.41157227 14.27314453 -0.43251953 14.98535156 -0.45410156 C17 0 17 0 18.890625 1.98632812 C21.62516373 4.59679982 23.12783097 4.53322104 26.859375 4.609375 C27.97441406 4.64160156 29.08945312 4.67382812 30.23828125 4.70703125 C31.97658203 4.72830078 31.97658203 4.72830078 33.75 4.75 C34.92433594 4.77964844 36.09867188 4.80929688 37.30859375 4.83984375 C40.20579822 4.91050727 43.10219955 4.96322266 46 5 C45.67 5.66 45.34 6.32 45 7 C44.25314941 6.99476318 43.50629883 6.98952637 42.73681641 6.98413086 C39.36621943 6.96339599 35.99563586 6.95035101 32.625 6.9375 C31.449375 6.92912109 30.27375 6.92074219 29.0625 6.91210938 C27.94101562 6.90888672 26.81953125 6.90566406 25.6640625 6.90234375 C24.62717285 6.89710693 23.5902832 6.89187012 22.52197266 6.88647461 C20.0040332 6.82859185 20.0040332 6.82859185 18 8 C16.6265365 8.15004973 15.2471474 8.24838006 13.8671875 8.31640625 C12.65869141 8.37924805 12.65869141 8.37924805 11.42578125 8.44335938 C10.58402344 8.48267578 9.74226562 8.52199219 8.875 8.5625 C8.02550781 8.60568359 7.17601562 8.64886719 6.30078125 8.69335938 C4.20071777 8.79954236 2.10038052 8.90028497 0 9 C0 6.03 0 3.06 0 0 Z " fill="#0A72C7" transform="translate(1,5)"/>
<path d="M0 0 C1.9375 1.4375 1.9375 1.4375 3 3 C3 3.66 3 4.32 3 5 C0.2100561 6.17094005 -2.58178597 7.33690927 -5.375 8.5 C-6.1690625 8.83386719 -6.963125 9.16773438 -7.78125 9.51171875 C-8.54179687 9.82753906 -9.30234375 10.14335937 -10.0859375 10.46875 C-10.7876709 10.76201172 -11.4894043 11.05527344 -12.21240234 11.35742188 C-14 12 -14 12 -16 12 C-16.33 12.66 -16.66 13.32 -17 14 C-17.75 10.75 -17.75 10.75 -18 7 C-16.5 4.8125 -16.5 4.8125 -14 3 C-13.21689453 2.42378906 -13.21689453 2.42378906 -12.41796875 1.8359375 C-8.06472646 -1.05312172 -5.18592486 -1.49593986 0 0 Z " fill="#C5E8F4" transform="translate(29,18)"/>
<path d="M0 0 C4.61607143 1.25892857 4.61607143 1.25892857 6.4375 3.9375 C6.4375 4.5975 6.4375 5.2575 6.4375 5.9375 C0.53263742 8.34764799 0.53263742 8.34764799 -2.5859375 7.1796875 C-4.2958297 6.18166879 -5.93588569 5.06617115 -7.5625 3.9375 C-5.07092564 0.64862184 -4.23359519 -0.0742736 0 0 Z " fill="#83CFED" transform="translate(25.5625,17.0625)"/>
<path d="M0 0 C1.875 1.1875 1.875 1.1875 3 3 C2.67 4.65 2.34 6.3 2 8 C-0.97 6.35 -3.94 4.7 -7 3 C-7 2.34 -7 1.68 -7 1 C-4.45132831 -0.27433584 -2.82594567 -0.27570202 0 0 Z " fill="#C3E9F2" transform="translate(34,23)"/>
</svg>
