<?xml version="1.0" encoding="UTF-8"?>
<svg version="1.1" xmlns="http://www.w3.org/2000/svg" width="48" height="48">
<path d="M0 0 C3.94727588 -0.17942163 6.5980513 -0.09350689 10 2 C10.66 1.34 11.32 0.68 12 0 C15.125 -0.125 15.125 -0.125 18 0 C17.01 1.32 16.02 2.64 15 4 C16.4540625 4.433125 16.4540625 4.433125 17.9375 4.875 C21 6 21 6 22 8 C20.02 8.33 18.04 8.66 16 9 C16.99 10.485 16.99 10.485 18 12 C18.125 14.6875 18.125 14.6875 18 17 C15.50638429 15.79618552 13.31856917 14.54571278 11 13 C11 16.3 11 19.6 11 23 C12.3303125 23.12375 12.3303125 23.12375 13.6875 23.25 C17 24 17 24 19.375 26 C22.95704203 28.72917488 25.55134806 28.69839648 30 29 C30 32.3 30 35.6 30 39 C16.14 39 2.28 39 -12 39 C-12 35.7 -12 32.4 -12 29 C-10.1746875 28.87625 -10.1746875 28.87625 -8.3125 28.75 C-4.1336501 28.25059439 -2.22125651 26.71263706 1 24 C4.3125 23.25 4.3125 23.25 7 23 C7 19.37 7 15.74 7 12 C6.21625 12.825 5.4325 13.65 4.625 14.5 C2 17 2 17 0 17 C0.875 10.125 0.875 10.125 2 9 C-0.97 8.505 -0.97 8.505 -4 8 C-2 5 -2 5 0.625 4.3125 C1.40875 4.209375 2.1925 4.10625 3 4 C2.01 2.68 1.02 1.36 0 0 Z " fill="#22A265" transform="translate(15,4)"/>
<path d="M0 0 C13.86 0 27.72 0 42 0 C42 3.3 42 6.6 42 10 C28.14 10 14.28 10 0 10 C0 6.7 0 3.4 0 0 Z " fill="#158EE4" transform="translate(3,33)"/>
<path d="M0 0 C0.66 0 1.32 0 2 0 C2.93619813 3.15506142 3.1057123 5.96586502 3.0625 9.25 C3.05347656 10.14203125 3.04445313 11.0340625 3.03515625 11.953125 C3.02355469 12.62859375 3.01195312 13.3040625 3 14 C4.3303125 14.12375 4.3303125 14.12375 5.6875 14.25 C9.44097537 15.09984348 11.25968046 16.34027809 14 19 C14 19.66 14 20.32 14 21 C5.42 21 -3.16 21 -12 21 C-9.90119373 16.80238746 -9.07344636 15.93973636 -5 14 C-3.68 14 -2.36 14 -1 14 C-1.01160156 13.32453125 -1.02320313 12.6490625 -1.03515625 11.953125 C-1.04417969 11.06109375 -1.05320312 10.1690625 -1.0625 9.25 C-1.07410156 8.36828125 -1.08570313 7.4865625 -1.09765625 6.578125 C-1.00826198 4.2181162 -0.66912821 2.25501476 0 0 Z " fill="#F8CB49" transform="translate(23,13)"/>
<path d="M0 0 C3.94727588 -0.17942163 6.5980513 -0.09350689 10 2 C10.66 1.34 11.32 0.68 12 0 C15.125 -0.125 15.125 -0.125 18 0 C15.78071806 2.90802461 14.07030857 4.95312762 11 7 C6.05499507 6.86635122 3.46549539 4.22371664 0 1 C0 0.67 0 0.34 0 0 Z " fill="#0D7740" transform="translate(15,4)"/>
<path d="M0 0 C0.66 0 1.32 0 2 0 C2.93619813 3.15506142 3.1057123 5.96586502 3.0625 9.25 C3.05347656 10.14203125 3.04445313 11.0340625 3.03515625 11.953125 C3.02355469 12.62859375 3.01195312 13.3040625 3 14 C1.68 14 0.36 14 -1 14 C-1.027193 12.41676312 -1.04648306 10.83338938 -1.0625 9.25 C-1.07410156 8.36828125 -1.08570312 7.4865625 -1.09765625 6.578125 C-1.00826198 4.2181162 -0.66912821 2.25501476 0 0 Z " fill="#B85514" transform="translate(23,13)"/>
<path d="M0 0 C2.875 0.3125 2.875 0.3125 6 1 C8.1519437 4.22791555 8.20086443 5.28400809 8 9 C4.63704165 7.55873214 2.37072898 5.79407345 0 3 C0 2.01 0 1.02 0 0 Z " fill="#2BCC90" transform="translate(25,12)"/>
<path d="M0 0 C-0.47205119 4.24846075 -2.88877522 6.26819288 -6 9 C-6.66 9 -7.32 9 -8 9 C-7.6875 5.625 -7.6875 5.625 -7 2 C-4 0 -4 0 0 0 Z " fill="#2ACD8C" transform="translate(23,12)"/>
</svg>
