<?xml version="1.0" encoding="UTF-8"?>
<svg version="1.1" xmlns="http://www.w3.org/2000/svg" width="48" height="48">
<path d="M0 0 C2 0.3984375 2 0.3984375 3.93359375 1.86328125 C6.96469031 4.11511669 9.98707045 4.19524221 13.66015625 4.67578125 C16 5.3984375 16 5.3984375 19 9.3984375 C19 14.3484375 19 19.2984375 19 24.3984375 C5.14 24.3984375 -8.72 24.3984375 -23 24.3984375 C-23 9.3984375 -23 9.3984375 -18 4.3984375 C-15.90234375 3.796875 -15.90234375 3.796875 -13.9375 3.7734375 C-10.09838766 3.76417791 -10.09838766 3.76417791 -8 1.8359375 C-5.30707689 -0.09960098 -3.24267467 0.03800009 0 0 Z " fill="#28B0E9" transform="translate(26,17.6015625)"/>
<path d="M0 0 C8 0 8 0 10.98046875 2.01171875 C13.47502134 5.70288457 13.57927301 8.52361088 13.3125 12.8125 C13.27866211 13.85180664 13.27866211 13.85180664 13.24414062 14.91210938 C13.18562661 16.60901573 13.0959548 18.30479861 13 20 C8.71 20 4.42 20 0 20 C0 13.4 0 6.8 0 0 Z " fill="#115796" transform="translate(32,22)"/>
<path d="M0 0 C0 6.6 0 13.2 0 20 C-4.29 20 -8.58 20 -13 20 C-13.13572155 17.60225255 -13.23436868 15.21224755 -13.3125 12.8125 C-13.35439453 12.13896484 -13.39628906 11.46542969 -13.43945312 10.77148438 C-13.53072324 7.02940958 -13.08831621 5.13068066 -10.98046875 2.01171875 C-8 0 -8 0 0 0 Z " fill="#128ED8" transform="translate(16,22)"/>
<path d="M0 0 C3 0.25 3 0.25 5 2.25 C5.25 5.25 5.25 5.25 5 8.25 C3 10.25 3 10.25 0 10.5 C-3 10.25 -3 10.25 -5 8.25 C-5.25 5.25 -5.25 5.25 -5 2.25 C-3 0.25 -3 0.25 0 0 Z " fill="#11599A" transform="translate(36,9.75)"/>
<path d="M0 0 C3 0.25 3 0.25 5 2.25 C5.25 5.25 5.25 5.25 5 8.25 C3 10.25 3 10.25 0 10.5 C-3 10.25 -3 10.25 -5 8.25 C-5.25 5.25 -5.25 5.25 -5 2.25 C-3 0.25 -3 0.25 0 0 Z " fill="#108EDB" transform="translate(12,9.75)"/>
<path d="M0 0 C3 0.25 3 0.25 5 2.25 C5.25 5.25 5.25 5.25 5 8.25 C3 10.25 3 10.25 0 10.5 C-3 10.25 -3 10.25 -5 8.25 C-5.25 5.25 -5.25 5.25 -5 2.25 C-3 0.25 -3 0.25 0 0 Z " fill="#28AFE9" transform="translate(24,5.75)"/>
</svg>
